<svg xmlns="http://www.w3.org/2000/svg" viewBox="0 0 344.63 292.14">
  <path d="M172.32 290.14h-4.68c-46.83-.65-90-10.82-121.65-28.64C22.73 248.35 8 232.24 3.5 214.89A44.53 44.53 0 0 1 2 203.41c0-23.84 19.72-46.9 54.09-63.29C87.75 125 129 116.68 172.32 116.68a307.13 307.13 0 0 1 75.91 9.12c28.08 7.16 51.76 18.14 68.5 31.74 16.94 13.78 25.9 29.64 25.9 45.87a44.88 44.88 0 0 1-.51 6.74 42.39 42.39 0 0 1-1 4.75c-2.49 9.53-8.08 18.73-16.62 27.34l-.1.1-.09.09c-19.93 20-53.65 35.19-94.95 42.69a309.1 309.1 0 0 1-32.15 4.09c-7.29.54-14.61.85-21.74.92h-3.16Z" style="fill:#fff"/>
  <path d="M172.32 118.68a305.14 305.14 0 0 1 75.42 9.06c27.79 7.09 51.21 17.93 67.73 31.35s25.16 28.71 25.16 44.32a42.45 42.45 0 0 1-.49 6.45 43.59 43.59 0 0 1-.94 4.53c-2.4 9.19-7.82 18.09-16.11 26.44l-.06.07-.11.12c-9.63 9.66-22.63 18.23-38.67 25.47-16.27 7.36-34.86 13-55.23 16.66a307.76 307.76 0 0 1-31.94 4.07c-7.24.53-14.51.84-21.61.91H167.68a306.3 306.3 0 0 1-67.19-8.13c-20.35-4.89-38.36-11.7-53.51-20.25C24.2 246.88 9.84 231.2 5.43 214.36a42.74 42.74 0 0 1-1.43-11c0-11.59 4.68-22.86 13.9-33.51s22.31-20 39.05-28c31.4-15 72.37-23.25 115.37-23.25m0-4c-45.2 0-86.35 9-117.09 23.64C21.26 154.51 0 177.68 0 203.41a47.16 47.16 0 0 0 .53 7 44.91 44.91 0 0 0 1 5C6.35 233.68 22 250.22 45 263.21c30.53 17.21 74.06 28.23 122.6 28.9H175.49c7.42-.07 14.71-.39 21.87-.92a310.58 310.58 0 0 0 32.36-4.12c41.71-7.58 76-23.2 96-43.25l.19-.19c8.61-8.68 14.51-18.19 17.14-28.24a46.81 46.81 0 0 0 1.56-12c0-34.88-39.07-65-95.9-79.54a310.52 310.52 0 0 0-76.41-9.19Z"/>
  <path d="M343.07 215.41c-2.63 10.05-8.53 19.56-17.14 28.24l-.19.19A114.23 114.23 0 0 1 305.06 260c-.43.28-.87.54-1.31.81-19.52 11.85-45 21-74 26.3a310.58 310.58 0 0 1-32.36 4.12c-7.16.53-14.45.85-21.87.92H167.63c-48.54-.67-92.07-11.69-122.6-28.9l-1-.56c-2.34-1.34-4.59-2.72-6.77-4.13-18.78-12.18-31.47-27-35.69-43.12 4.92-16.62 21.22-31.58 45.21-43.21a214.35 214.35 0 0 1 35.78-13.27c7.73-2.15 15.86-4 24.33-5.63a356.41 356.41 0 0 1 65.43-5.87 370.05 370.05 0 0 1 44.59 2.66 308.83 308.83 0 0 1 43.69 8.43c2.68.73 5.3 1.5 7.88 2.29 39.85 12.21 67.87 31.85 74.59 54.57Z"/>
  <path d="M260.6 158.51c-11-16.45-23.79-30.91-38.62-41.48a105.7 105.7 0 0 0-13.7-8.31c14.8-27 72.33-58.92 72.33-58.92s-77.05 4.28-95.94 22.67C147.19 6.55 108.9 0 108.9 0s32.93 59.3 28.41 71.18c-26.84-22-56.25-20.85-56.25-20.85s50.44 43.61 53.79 55.76A93.52 93.52 0 0 0 112 121.56c-11.29 10.18-21 23.11-29.4 37.36C63 192.32 50.9 233 44 262.65l1 .56c30.53 17.21 74.06 28.23 122.6 28.9H175.49c7.42-.07 14.71-.39 21.87-.92a310.58 310.58 0 0 0 32.36-4.12c29-5.28 54.5-14.45 74-26.3.44-.27.88-.53 1.31-.81-9.43-32.44-23.73-70.48-44.43-101.45Z" style="fill:#ff8c00"/>
</svg>
