<svg width="100" height="40" fill="none" xmlns="http://www.w3.org/2000/svg">
  <path fill-rule="evenodd" clip-rule="evenodd" d="M34.322 39.85c-3.668-3.25-6.984-4.298-10.039-4.298-1.86 0-3.395.136-4.787.259-1.153.101-2.208.195-3.266.195-8.804 0-15.942-7.138-15.942-15.943S7.426 4.123 16.23 4.123 32.17 11.258 32.17 20.063a15.864 15.864 0 0 1-2.257 8.183c-.047.078-.164.05-.177-.039-.547-3.918-2.94-6.076-6.424-6.706-.303-.055-.359-.241.041-.276 1.063-.09 2.577-.076 3.347.064.046-.402.067-.812.067-1.226 0-5.82-4.718-10.54-10.538-10.54S5.69 14.245 5.69 20.065c0 5.82 4.719 10.538 10.539 10.538h.093c.134 0 .269 0 .402-.006a14.234 14.234 0 0 1-.199-2.85c.027-.643.156-.73.447-.23 1.458 2.513 3.551 4.802 7.619 5.698 3.326.733 6.66 1.6 10.266 6.152.32.405-.168.81-.536.484Zm-8.303-8.27c.375-.505.16-1.217-.55-1.817-.35-.297-.758-.46-1.147-.46-.32 0-.588.111-.752.314-.421.519-.232 1.433.412 1.997a1.69 1.69 0 0 0 1.085.392c.406 0 .744-.152.952-.427Zm2.723-3.34c.104.7-.116.988-.338.988-.242 0-.546-.283-.904-.842-.353-.552-.482-1.184-.307-1.504.115-.212.358-.304.664-.188.591.224.824 1.13.885 1.547Zm20.26-5.86 1.838 2.21c-.71.395-1.51.6-2.322.597-2.83 0-4.89-2.353-4.89-5.123 0-2.769 2.06-5.156 4.89-5.156 2.828 0 4.89 2.387 4.89 5.156-.002.589-.099 1.174-.287 1.732h-3.845a.356.356 0 0 0-.274.584Zm10.154 5.946c.2.22.036.576-.266.576h-4.194a.574.574 0 0 1-.442-.208l-.712-.855a9.203 9.203 0 0 1-5.024 1.488c-5.107 0-9.262-4.156-9.262-9.263s4.154-9.262 9.262-9.262c5.107 0 9.262 4.155 9.262 9.262a9.2 9.2 0 0 1-1.472 5l2.848 3.262Zm35.335-17.098h3.425c.251 0 .455.203.455.455v16.762a.456.456 0 0 1-.456.456h-3.424a.456.456 0 0 1-.456-.456V11.684c0-.252.204-.456.456-.456Zm-2.337 0h-3.832c-.2 0-.376.13-.436.32l-3.032 9.905-3.332-9.916a.454.454 0 0 0-.432-.309h-2.672a.456.456 0 0 0-.432.309l-3.333 9.916-3.031-9.904a.455.455 0 0 0-.436-.321h-3.83a.456.456 0 0 0-.434.594l5.628 16.772a.456.456 0 0 0 .432.308h3.04a.456.456 0 0 0 .432-.308l3.3-9.798 3.3 9.798a.456.456 0 0 0 .432.308h3.04a.456.456 0 0 0 .432-.308l5.628-16.772a.45.45 0 0 0-.432-.594ZM65.473 28.445V11.684a.456.456 0 0 0-.456-.457h-3.424a.456.456 0 0 0-.456.456v16.762c0 .252.204.456.456.456h3.424a.456.456 0 0 0 .456-.456Z" fill="#FF8C00"/>
</svg>
