<svg xmlns="http://www.w3.org/2000/svg" viewBox="0 0 543.46 347.41">
  <path fill="#ff8c00" d="m505.21 98.24 16.63-.24c-18.41-18.69-47.18-19.36-47.18-19.36l18.9-2.62c-24.27-19.27-48-14.8-48-14.8l24.12-6.6s-15.5-12.67-50-9.58c-6.37-16.26-44.28-20.85-44.28-20.85s.51 2.74 1.91 9.39C342 23.46 278.7 47.3 278.7 47.3s17.8.42 27.59 3.74C264.2 54.31 246 81.6 246 81.6s9.74-2.69 17.87-2.92c-32.51 9.32-32.11 24.89-32.11 24.89s13-8.1 21-6.42c-42.19 18.42-43.77 52.45-43.77 52.45l20.49-8.73c-18.45 13.27-12.63 40.77-12.63 40.77l12.39-8.09c-8 6-9.51 19.82-9.51 19.82s17.81 23.37 75.88 24.95a108 108 0 0 1-4.61 14.94h197.38L477 206.92h6.48c-6-5.31-3.24-23.4-3.24-23.4l7.41 5.09c-3.64-12.75 10.42-26.24 10.88-26.68 20.33-16 20.56-29.55 18.94-36.94-1.66-20.44-12.26-26.75-12.26-26.75Z"/>
  <circle fill="#fff" cx="297.34" cy="56.54" r="36.54"/>
  <circle fill="#25323e" cx="309.9" cy="47.5" r="13.87"/>
  <circle fill="#fff" cx="374.35" cy="37.64" r="36.54"/>
  <circle fill="#25323e" cx="365.38" cy="52.88" r="13.87"/>
  <path fill="#25323e" d="M260.78 65.47c-.16-.73-3.64-18.24 6.53-31.78 6.52-8.67 17.11-13.63 31.5-14.76l.17 2.18c-13.73 1.08-23.8 5.75-29.92 13.9-9.58 12.76-6.18 29.85-6.14 30ZM338.91 36.53h-2.19c0-.34.87-34.79 37.9-36.5l.1 2.19C360 2.86 349.54 8.84 343.55 20a40 40 0 0 0-4.64 16.53ZM345.39 207.57l-2.45-.29c.5-4.16 10-14.22 11-15.35l1.79 1.7c-3.81 4.05-10.04 11.37-10.34 13.94ZM356.25 220.9a2.69 2.69 0 0 1-.92-.14 2.56 2.56 0 0 1-1.67-2.15c-.93-5.78 5.55-16.31 5.82-16.76l2.1 1.3c-1.75 2.82-6.13 11-5.49 15.07a1.05 1.05 0 0 0 .07.23c1.21.61 7.69-3.65 13.56-9l2.06-1.86v12.06h-2.47v-6.56c-3.59 3.09-9.68 7.81-13.06 7.81Z"/>
  <path fill="#25323e" transform="rotate(-10.48 386.89 213.28)" d="M385.73 206.81h2.47v12.98h-2.47z"/>
  <path fill="#25323e" d="m411.35 45.28-2.43-.44c4.19-23.39-9.41-32.21-10-32.58l1.3-2.09c.65.39 15.63 9.99 11.13 35.11ZM0 232.03h543.46v2.47H0zM326.63 285s2.06-4.61 4.72-4.61 3.4-2.66 6.06-2.66 6.3 2.91 6.3 5.57-2.66 3.39-2.66 4.85-6.06 2.18-7.76 1.94-6.78-1.51-6.66-5.09Z"/>
  <ellipse fill="#ff8c00" cx="278.4" cy="306.69" rx="76.71" ry="40.72"/>
  <path fill="#25323e" d="M223.13 319.78s2.06-4.61 4.73-4.61 3.39-2.66 6.06-2.66 6.3 2.91 6.3 5.57-2.66 3.4-2.66 4.85-6.06 2.18-7.76 1.94-6.8-1.45-6.67-5.09ZM208.79 290.2a4.13 4.13 0 0 1 1.53-5.23c3.07-2.15 4.36-.45 5.26-.45s4.22-.38 4.35 1-10.11 7.08-11.14 4.68ZM249.92 290.79s.24-4.15 6.54-3.46 5.09 1.13 5.82 3.46 3.63.39 3.39 3.54-16.24 3.88-17.21 1.7-1.94-5.15 1.46-5.24ZM298 313.69a7.6 7.6 0 0 1 3.81-3.36c2.79-1.18 7.11 2.72 8.38 2.91s3.42 1.18 3.17 3-12.06 2.73-12.82 1.82-4.8-1.84-2.54-4.37ZM297.55 280c.79-.41 3.48-2.82 7.57-2.35s3.21 2.19 4.41 3.05-1.92 3.21-6.54 3.21-7.88-2.67-5.44-3.91ZM267.37 266.11a13.44 13.44 0 0 1 7.57-1.77c4.09.35 3.21 1.65 4.41 2.3s-1.91 2.42-6.54 2.42-7.88-1.99-5.44-2.95Z"/>
  <path fill="#ff8c00" d="M174.81 275.83s2.85-3.1 6.22-2.07 1.81.32 2.33 3.92-12.7.8-12.18 0 3.63-1.85 3.63-1.85ZM209.78 253.3c2.06 1.21 4.37 1 4.39 2.59s-7.24 4.92-10.87 3.11 2.09-8.29 6.48-5.7ZM376.67 297.28s-.19-3.83 4.86-3.64 7 2.92 7.38 4.67-7.19 3.49-9.91 2.91-5-2.44-2.33-3.94ZM165.13 203.1s-13.2-3.85-18.2-3.85l2.69 3.85-1.71.33a60 60 0 0 0-10.84-4.67s-18.53-4.13-25.55-4.13l3.78 4.13s-29.57-1.82-30.65 4l6.16 5.13a37.27 37.27 0 0 0-8.22-4.76s-13.2-3.85-18.2-3.85l2.69 3.85s-23.86 5.77-24.63 11.16h5.77S31.28 232 33.59 242l6.4-4.62s-5.25 18.45 8.22 24.62c6.74 3.08 12.24.77 16.06-2.31a22.57 22.57 0 0 0 7-10.37 94.81 94.81 0 0 1 5.77-13.72l.18-.1s-7.36 19.8 11.55 26.4a25.28 25.28 0 0 0 18.09-.23 26.74 26.74 0 0 0 9.2-6.18c2 3.13 5.42 6 11 8 7 2.46 15.89-.69 19.7-3.77a22.51 22.51 0 0 0 7.06-10.37c2.41-7.11 12.84-17.29 19.38-17.29h11.32c1.42-4.21-5.13-22.71-19.39-28.96Z"/>
  <path fill="#25323e" d="M114.48 245.53c-1.13-15.15 6.74-27.09 10.21-31.56-.86-.07-2-.16-3.33-.29l-1.39-.12.29-1.36c1.28-6 16.69-7.64 19.76-7.92l.22 2.46c-5.87.53-14 2.25-16.7 4.66 2.48.21 3.69.29 3.71.29l2.58.16-1.75 1.91c-.13.13-12.47 13.73-11.14 31.59ZM79.17 231.45l-2.45-.21c0-.52 1.22-12.72 10.43-21.78l1.73 1.76c-8.55 8.4-9.7 20.12-9.71 20.23Z"/>
  <path fill="#f55200" d="M330.62 70.22c-21.67 15.13-82.94 42-191.07 56.32 122.09 8.12 170.17 3.5 241.05-28.35s1-11.32-22.68-23.91l-.42-.23c-13.01-7-14.92-12.18-26.88-3.83Z"/>
  <path fill="#f55200" d="M305.92 161.92s108.24-44.68 105.61-81.09A370.51 370.51 0 0 1 333 96.91s51.74-16.57-27.08 65.01Z"/>
  <path fill="#d0021b" d="M351.55 110.43s31.37-9.33 45.32-19.66c-37.75 42.77-72.68 59.17-72.68 59.17s19.96-19.78 27.36-39.51Z"/>
  <path fill="#f55200" d="m358.81 110.93-10.74 16.86 25.3-22.58-14.56 5.72z"/>
  <path fill="#d0021b" d="M139.55 126.54q16.44 1.42 32.9 2t32.94.64c11-.08 22-.28 32.9-.82 5.48-.24 11-.6 16.43-1s10.93-.86 16.38-1.45c10.91-1.1 21.79-2.46 32.59-4.34s21.55-4 32.16-6.77c2.67-.62 5.29-1.4 7.93-2.15s5.28-1.46 7.87-2.36l7.81-2.57 7.69-2.89a218.78 218.78 0 0 0 29.72-14.11 197.79 197.79 0 0 1-29.22 15.35l-7.67 3.1-7.79 2.83c-2.58 1-5.24 1.72-7.87 2.56s-5.26 1.66-7.93 2.35c-21.25 6-43.1 9.56-65 11.8a564.15 564.15 0 0 1-66 2.59q-16.51-.32-33-1.4c-10.98-.9-21.95-1.79-32.84-3.36Z"/>
</svg>
