<svg xmlns="http://www.w3.org/2000/svg" viewBox="0 0 306.71 323.31">
  <defs>
    <linearGradient id="linear-gradient" y1="161.66" x2="210.69" y2="161.66" gradientUnits="userSpaceOnUse">
      <stop offset=".62" stop-color="#25323e"/>
      <stop offset="1" stop-color="#3b4954"/>
    </linearGradient>
  </defs>
  <path
    d="m179.53 244.4 1.24.26 12.54 2.66 3 12.86v.17l.1.1 10.76 10.75-9.84-11.37-2.18-13.61-.1-.62-.68-.19-11.58-3.35 1.54-11.21 9.75 1 1.24.13.3-1.07 2.27-8.13 12.74 10.57-12.62-12.83-.95-1-.53 1.34-3.11 7.95-8.58-1.79.43-3.1.19-1.43-1.4-.79-15.42-8.64c5.53-12.54 9.61-21.4 7.69-44.78-.38-4.6-1-9.77-1.88-15.64-.69-4.67-1.56-9.79-2.62-15.43-.37-4.47-4.73-21.81-5.35-26.36-1.38-10.29-2.07-21.1.07-26.54 1.28-3.32 2.74-6.6 4.35-9.8 4.9-9.74 8-21.8 3.68-33.94A37.15 37.15 0 0 0 168.1 29c3.63-2.19 17.59-5.13 17.59-5.13a22.34 22.34 0 0 0-14.58-2.21c.44-3.1 14.58-11.94 14.58-11.94s-9-3.14-24.93 6.58a5.57 5.57 0 0 0-.27-.7 4.26 4.26 0 0 0-.23-.49c0-.1-.11-.2-.17-.3s-.25-.42-.39-.63a13.44 13.44 0 0 0-1-1.29l-.56-.66-.3-.34a.27.27 0 0 1-.07-.08l-.56-.59-.33-.33c-.11-.12-.22-.23-.34-.34l-.27-.27c-1-1-2.1-1.93-3.22-2.86l-.62-.5c-.26-.22-.53-.43-.79-.63l-.35-.29c-.79-.62-1.57-1.2-2.32-1.75-.25-.19-.49-.37-.74-.54a81.98 81.98 0 0 0-2.35-1.66l-.52-.36-.85-.57-.42-.28-.24-.15a2.77 2.77 0 0 0-.34-.22l-.27-.19-.41-.28.13.21c0 .06.07.12.12.2.26.44.71 1.19 1.27 2.17.29.53.63 1.13 1 1.78q.4.75.84 1.59c.22.41.43.83.65 1.27l.54 1.11c.11.22.21.44.31.66a48.54 48.54 0 0 1 3.09 8.16c0 .13.07.26.1.39a18.09 18.09 0 0 1 .46 2.69 25.28 25.28 0 0 0-3 0l-1 .06c-.69.06-1.38.14-2.08.25s-1.67.3-2.52.52l-.94.25c-.38.1-.75.22-1.13.34l-.87.29a37.88 37.88 0 0 0-4.96 2.06l-1 .57q-.57.32-1.14.66c-.76.45-1.52.94-2.28 1.46a59.1 59.1 0 0 0-11.11 10l-8.12-7.09 1.47-12.37.09-.75-.54-.21-7.49-2.89 6.08 4-4.37 12.65-.32.92.89 1.2 7.7 10.35-.78 1.08c-5.15 7.36-7.62 12.87-8.33 17.23C75 73.46 26.94 81.42 26.92 81.42c2.62 0 5.56-.19 8.75-.47 2.7-.15 5.39-.31 8.09-.48 5.61-.36 11.21-.78 16.82-1.2q16.82-1.33 33.57-3.21c5.37-.64 10.74-1.31 16.1-2.06 2.59 2.63 5.8 5 8.56 8a111.39 111.39 0 0 1-23.52 15.52 282.93 282.93 0 0 0 27.8-9.34c.19.42.37.86.54 1.3.79 6.76 2.53 14.56-14.82 34q-2.25 2.42-4.32 4.66l-.06.07C98.69 134.43 93.94 139.86 90 145c-1.47 1.9-2.84 3.75-4.1 5.58-1.5 2.18-2.87 4.34-4.12 6.52a77.65 77.65 0 0 0-4.91 10.19c-.36.9-.7 1.82-1 2.75-.17.47-.33.94-.49 1.41-.6 1.76-1.11 3.44-1.58 5.08l-8.12-2-.73-10.7-11.74-7.93-2.53-10.41L31 140.14l18 6.75 2 10.42 9.29 7.89v8l-15.2-3.75-20.31 14.61L0 172.8l25.9 16L47 175.9l24.44 10.66c-3.63 21.91 3.76 33.56-1.13 61.9a.66.66 0 0 0 .32.07c-6.63 17.2-15.83 37-24 40.12-14.8 5.68-18-2.79-28.95 3s-5.79 14.48 4.5 14.48 28-7.72 24.93-4.19c-11.74 2.9-17.85 19.95-5 20.59s16.42-11.26 19.25-18 26.78-2.28 23.27-11.29-19.01-1.63-19.63-9.67c-.27-3.37 5-14.33 11.31-25.92l4.81 5.92.94 1.16.88-.13 4.43-.63 5.14 7.23-3.26-9.37-.21-.61-1-.15-3.59-.51-4.21-10 1.11-2c4.41-5.49 18.31-21.5 31.35-22.69 21.55-2 31.13 18.72 33.8 26.78.91 13.16 1.74 27.09 1.42 31-.64 8-14.36.69-17.87 9.7s15.12 5.1 17.94 11.85 6.4 18.66 19.25 18 6.74-17.7-5-20.59c-.73-.84-.29-1 1-.87l.42.07.49.09.51.12.22.05c.25.06.52.12.8.2l.86.22.66.18 3 .84.72.2 1.49.41 1.33.35.91.24.69.18 1.16.28.93.22.93.21c.55.12 1.09.24 1.63.34l1.31.25c.47.08.95.16 1.41.22l.77.11 1 .11c.63.07 1.25.12 1.85.14h.89c10.29 0 15.44-8.68 4.5-14.47s-14.15 2.68-28.95-3c-8.07-3.09-8.09-22.25-6.44-39a1.44 1.44 0 0 0 .48-.26 160 160 0 0 1 9.69-31.68l14.35 6.74-1.23 17.9Z"
    style="fill:url(#linear-gradient)"/>
  <path fill="#f55200" d="M259 165.48s3.38 12.39-7.32 18.58-40.39-7.32-54-11.83c-3.07-1-11-2.38-21.35-3.88-23.69-3.42-60.31-7.56-82.1-9.94l-12.53-1.35c1.25-2.18 2.62-4.34 4.12-6.52 1.26-1.83 2.63-3.68 4.1-5.58l26.37 2.45c18.27 1.69 40.34 3.72 58.16 5.3 17.18 1.52 30.41 2.63 32.44 2.63 6.48 0 2-24.21 16.61-23.65s15.21 11.82 15.21 11.82 28.72-5.63 33.78 6.76S259 165.48 259 165.48Z"/>
  <path fill="#25323e" transform="rotate(4.15 241.214 166.338)" d="M238.28 87.48h5.43v157.43h-5.43z"/>
  <path fill="#f55200" d="m231.63 172.66 7.14-29.15 8.94-1.1 3.16 3.96 2.25 9.83v20.54l-1.4 7.32-4.46-.8-10.66-4.03-4.97-6.57z"/>
  <path fill="#f55200" d="M229.26 162.57s-6.1.63-6.12 7.83c0 12.35 23.69 12.35 23.69 12.35"/>
  <path fill="#25323e" d="M246.83 183.75c-.62 0-15.43-.08-21.8-6.47a9.38 9.38 0 0 1-2.89-6.88c0-8 7-8.82 7-8.83l.2 2-.1-1 .11 1c-.21 0-5.22.67-5.23 6.85a7.36 7.36 0 0 0 2.3 5.46c5.79 5.8 20.25 5.88 20.39 5.88Z"/>
  <path fill="#f55200" d="M234.26 146.05s-7.89 5.21-7 13.16 22.24 7.11 22.24 7.11"/>
  <path fill="#25323e" d="M247.3 167.36c-5.83 0-20.3-.74-21.08-8-.89-8.46 7.14-13.88 7.49-14.1l1.1 1.66c-.07.05-7.37 5-6.6 12.23.62 5.76 15.52 6.44 21.21 6.21l.08 2c-.35-.02-1.13 0-2.2 0Z"/>
  <path d="M116.35 147.41a61.68 61.68 0 0 0-22.06 11l-12.53-1.35c1.25-2.18 2.62-4.34 4.12-6.52 1.26-1.83 2.63-3.68 4.1-5.58Z" style="fill:#d64100"/>
  <path transform="rotate(4.15 249.283 72.496)" style="fill:#e5e5e5" d="M194.32 33.16h109.69v78.64H194.32z"/>
  <path fill="#25323e" transform="rotate(4.15 230.41 70.278)" d="M212.43 66.81h35.65v6.81h-35.65z"/>
  <circle fill="#25323e" cx="231.22" cy="57" r="5.63"/>
  <circle fill="#25323e" cx="229.3" cy="83.45" r="5.63"/>
  <path fill="#25323e" d="M253.63 71.16c1-13.09 5.92-23.19 18.88-22.25S288.93 60.56 288 73.65 282.05 97 269.08 96.1s-16.4-11.85-15.45-24.94Zm22.86 1.66c.53-7.41-.31-13.38-4.72-13.7s-6.11 5.47-6.65 12.87.3 13.57 4.71 13.89 6.11-5.59 6.66-13.06Z"/>
</svg>
