<svg xmlns="http://www.w3.org/2000/svg" viewBox="0 0 563.4 239.23">
  <path fill="#ffc200" d="M534.08,93.86a66.65,66.65,0,0,1-1.52,14.3h-132A66.66,66.66,0,0,1,399,93.86a67.55,67.55,0,0,1,135.09,0Z"/>
  <rect fill="#25323e" y="106.66" width="563.4" height="3"/>
  <polygon fill="#ccc" points="80.26 3.15 119.96 0 133.47 26.47 183.59 10.14 193.73 30.41 214.56 25.9 228.64 43.36 288.89 24.21 310.86 62.51 339.57 55.19 344.08 87.85 355.9 79.4 364.22 93.84 314.23 158.8 95.74 111.5 80.26 3.15"/>
  <ellipse fill="#25323e" cx="130.34" cy="220.02" rx="120.05" ry="19.22"/>
  <path fill="#f2f2f2" d="M327.46,105.78l-13.6-22.52L294.25,96,275.19,62.13,215.12,95.45l-27.2-45-53.41,16.8L80.26,3.15q-4,9.91-7.07,20.21c-28,94.77,17.71,176.58,97,200.05S332.44,203.1,360.47,108.33q2.13-7.18,3.75-14.49Z"/>
  <polygon fill="#25323e" points="385.77 180.08 358.02 182.74 381.09 170.37 379.31 167.06 354.09 180.59 363.23 165.59 360.01 163.63 347.55 184.09 327.09 195.06 328.87 198.38 349.44 187.34 386.13 183.82 385.77 180.08"/>
  <polygon fill="#25323e" points="455.81 177.98 440.81 178.05 449.46 171.03 447.18 168.21 435.91 177.34 435.35 167.02 431.72 167.22 432.43 180.16 419.13 190.94 421.42 193.76 436.29 181.71 455.83 181.61 455.81 177.98"/>
  <polygon fill="#25323e" points="435.6 146 439.61 141.69 449.07 139.11 448.54 137.18 442.2 138.91 445.03 135.87 443.57 134.51 439.81 138.54 439.24 133.8 437.25 134.04 438.02 140.46 434.13 144.64 435.6 146"/>
  <polygon fill="#25323e" points="481.42 130.24 480.76 129.48 478.27 131.63 478.99 128.81 478.02 128.56 477.29 131.44 476.15 128.57 475.22 128.94 476.87 133.08 476.48 134.61 477.44 134.86 477.84 133.33 481.42 130.24"/>
  <polygon fill="#25323e" points="471.04 117.69 469.12 118.2 469.79 117.03 468.93 116.53 468.04 118.08 466.95 116.56 466.13 117.14 467.49 119.03 466.41 120.9 467.27 121.4 468.41 119.43 471.3 118.65 471.04 117.69"/>
  <path fill="#fff" d="M284.26,197.33l-1.3-2.7c17-8.19,32.08-23.26,43.72-43.59l2.6,1.49C317.34,173.39,301.77,188.88,284.26,197.33Z"/>
  <path fill="#fff" d="M338.2,137.75l-2.61-1.48c3.31-5.87,5.87-10.73,8-15.29l2.71,1.28C344.14,126.89,341.55,131.81,338.2,137.75Z"/>
  <path fill="#25323e" d="M183.08,229.64c-51.85-15.54-87.32-42.95-105.44-81.47C61.21,113.25,62.42,75.51,66.34,50A221.63,221.63,0,0,1,78.88,2.57l2.76,1.16c-.32.77-32.13,77.63-1.28,143.18C98.1,184.62,133,211.48,183.94,226.77Z"/>
</svg>
